<?xml version="1.0" standalone="no"?>
<!DOCTYPE svg PUBLIC "-//W3C//DTD SVG 20010904//EN"
 "http://www.w3.org/TR/2001/REC-SVG-20010904/DTD/svg10.dtd">
<svg version="1.0" xmlns="http://www.w3.org/2000/svg"
 width="1417.000000pt" height="1417.000000pt" viewBox="0 0 1417.000000 1417.000000"
 preserveAspectRatio="xMidYMid meet">

<g transform="translate(0.000000,1417.000000) scale(0.100000,-0.100000)"
fill="#000000" stroke="none">
<path d="M0 12615 c0 -855 2 -1555 4 -1555 4 0 208 160 445 348 170 135 210
153 400 182 93 15 174 20 311 19 235 -1 285 -7 285 -34 0 -23 11 -22 -236 -10
-183 9 -329 -10 -329 -44 0 -24 77 -82 129 -96 91 -25 318 -106 337 -119 15
-11 13 -15 -20 -35 -70 -44 -70 -43 -27 -259 21 -106 44 -199 51 -207 14 -17
159 -97 168 -93 28 12 291 304 333 367 31 48 56 78 64 75 22 -9 -5 -60 -79
-148 -90 -107 -426 -474 -648 -707 -171 -180 -178 -188 -172 -220 10 -61 8
-60 83 -29 91 39 120 38 182 -5 28 -19 57 -35 65 -35 7 0 113 14 236 30 218
29 329 37 314 23 -4 -4 -33 -17 -64 -28 -38 -14 -57 -26 -56 -36 2 -26 110
-162 144 -183 18 -10 66 -22 108 -27 69 -9 80 -13 110 -44 18 -19 39 -35 46
-35 7 0 46 11 87 25 41 14 83 23 94 21 11 -3 79 -46 150 -96 l130 -91 6 44 c4
25 12 54 18 65 15 27 75 49 170 61 89 11 141 34 185 80 29 30 30 30 105 24 64
-5 80 -3 94 11 21 21 21 31 3 126 -8 41 -22 141 -31 223 -16 135 -16 149 -1
172 9 13 76 67 150 120 74 53 138 105 142 117 3 11 3 40 -1 64 -9 61 17 146
59 192 51 55 85 51 180 -22 91 -70 144 -127 219 -237 40 -58 58 -77 62 -67 13
34 -46 122 -146 218 -55 52 -99 98 -99 102 0 3 117 -47 260 -113 143 -65 263
-119 266 -119 21 0 -23 29 -95 63 -325 151 -429 202 -477 232 -30 19 -116 95
-192 168 -178 172 -200 188 -383 303 -195 122 -268 180 -340 270 -115 146
-132 213 -94 372 49 203 94 243 409 351 65 23 134 41 153 41 19 0 59 7 89 16
43 12 91 15 222 12 156 -3 170 -5 212 -28 75 -42 101 -88 133 -230 41 -180 72
-279 105 -330 34 -53 193 -217 306 -315 104 -91 121 -127 113 -244 l-5 -86 19
40 c23 50 24 126 2 173 -9 21 -98 118 -203 222 -174 172 -190 191 -228 270
-35 72 -46 111 -72 255 -29 165 -36 225 -25 225 16 0 126 -63 249 -142 242
-155 290 -174 531 -203 251 -30 394 -84 495 -185 55 -54 217 -287 297 -425
144 -249 237 -495 278 -738 83 -492 98 -710 93 -1290 -4 -485 -9 -532 -46
-411 -41 134 -166 284 -237 284 -9 0 -28 9 -42 20 -23 18 -36 19 -166 13 -128
-5 -148 -3 -204 16 -34 11 -78 21 -97 21 -25 0 -39 7 -51 23 -13 19 -25 22
-85 23 -64 1 -72 3 -123 41 -82 62 -87 80 -87 288 0 115 -6 213 -16 279 -30
189 -5 350 78 494 28 49 33 66 33 122 -1 97 -22 127 -194 284 -146 133 -191
190 -191 241 0 18 -1 18 -16 3 -36 -36 18 -116 171 -255 170 -154 212 -240
170 -353 -99 -264 -104 -304 -81 -585 28 -330 24 -350 -70 -440 -62 -58 -127
-97 -246 -144 -152 -60 -450 -223 -511 -280 -49 -45 -69 -97 -80 -212 -10
-102 -10 -109 13 -165 18 -45 25 -87 29 -174 l6 -115 73 -167 c67 -156 75
-181 112 -370 50 -252 60 -339 60 -548 0 -91 5 -208 10 -260 14 -130 63 -294
127 -419 59 -117 64 -151 32 -218 -27 -57 -103 -123 -140 -123 -36 0 -59 42
-89 161 -28 113 -35 124 -90 147 -26 11 -101 59 -165 106 -138 101 -198 124
-281 109 -36 -6 -67 -5 -105 4 -77 17 -131 16 -186 -6 -26 -10 -73 -22 -103
-26 -51 -6 -59 -11 -105 -63 -102 -114 -134 -142 -164 -142 -57 0 -90 -21
-150 -95 -84 -103 -92 -123 -98 -236 -6 -93 -4 -100 21 -143 35 -61 66 -79
135 -82 31 -1 59 -3 64 -3 17 -2 5 -29 -28 -61 -68 -66 -41 -83 90 -59 82 16
144 5 200 -34 50 -35 97 -97 73 -97 -7 0 -37 16 -67 35 -73 47 -108 52 -198
29 -82 -20 -68 -24 -168 44 -57 37 -65 39 -72 12 -3 -11 -6 -20 -8 -20 -1 0
-49 22 -107 49 -149 70 -166 97 -134 221 7 30 17 75 20 99 11 74 33 107 100
150 34 22 94 71 134 108 118 111 95 120 -90 38 -67 -30 -135 -55 -149 -55 -38
0 -86 -37 -146 -110 -42 -53 -58 -84 -84 -165 -42 -134 -56 -218 -40 -252 10
-22 9 -29 -9 -48 -20 -21 -20 -25 -7 -52 13 -24 13 -32 1 -55 -11 -20 -11 -33
-2 -58 10 -29 8 -35 -9 -49 -16 -13 -22 -32 -26 -93 -3 -43 -14 -95 -25 -120
-10 -24 -68 -103 -128 -176 -60 -73 -119 -148 -132 -165 -13 -18 -31 -35 -40
-39 -9 -3 -32 -12 -50 -19 -22 -8 -47 -32 -75 -72 -23 -33 -48 -68 -56 -79
-22 -30 0 -42 87 -50 42 -4 122 -12 177 -19 169 -19 370 -22 450 -5 38 8 100
17 137 20 45 3 147 31 305 82 131 42 281 90 333 106 l96 31 1 36 c2 69 11 149
17 160 4 6 13 11 19 11 32 1 38 16 21 55 -14 35 -14 40 0 50 8 6 27 52 41 101
26 89 39 114 52 101 3 -4 -8 -76 -25 -160 -37 -175 -38 -187 -16 -230 25 -50
63 -85 138 -129 95 -56 115 -54 188 19 87 86 112 126 104 165 -4 18 -18 50
-32 72 -28 41 -94 210 -94 239 0 34 38 17 86 -39 41 -47 52 -55 78 -52 28 3
32 9 62 89 46 125 110 258 128 265 24 9 176 -47 176 -65 0 -4 -34 -31 -76 -60
-41 -29 -80 -64 -86 -77 -9 -18 -8 -51 0 -125 7 -56 9 -105 6 -111 -3 -5 -27
-19 -53 -30 -45 -19 -81 -45 -81 -58 0 -4 17 -28 37 -55 l38 -48 -45 -38 c-25
-22 -76 -56 -115 -76 -58 -31 -66 -38 -46 -41 13 -2 54 10 92 28 87 40 157 48
232 26 67 -19 105 -55 207 -192 79 -106 137 -156 295 -254 70 -43 130 -89 152
-116 83 -99 65 -18 -29 134 -39 62 -83 121 -99 133 -16 11 -55 25 -87 30 -53
10 -66 17 -123 73 -35 34 -89 89 -119 122 -30 32 -102 103 -158 157 l-104 98
41 30 c47 33 48 43 24 133 -26 99 1 177 77 218 31 17 48 19 148 14 l112 -6 45
41 c59 55 63 74 28 135 -36 60 -70 84 -170 120 -153 54 -143 47 -143 101 1 69
30 126 85 165 38 27 56 50 92 122 51 101 49 101 89 -17 16 -49 49 -111 85
-165 65 -96 74 -136 42 -195 -11 -20 -17 -54 -17 -92 1 -75 37 -164 135 -336
153 -266 170 -317 189 -559 16 -209 15 -405 -4 -579 -19 -168 -20 -270 -5
-341 12 -54 35 -65 32 -14 -14 204 -14 249 -4 324 37 281 32 642 -13 810 -33
126 -80 235 -152 356 -104 172 -124 238 -100 319 23 75 20 155 -10 243 -27 80
-165 356 -240 477 -76 123 -110 213 -145 373 -5 26 -14 175 -19 332 -6 205
-13 303 -25 350 -25 102 -55 288 -49 305 4 10 19 15 43 15 70 0 129 -91 172
-265 18 -73 31 -101 67 -149 25 -32 76 -110 114 -173 79 -132 191 -283 293
-393 39 -42 91 -103 117 -137 25 -33 70 -77 100 -97 29 -19 64 -52 78 -72 13
-20 70 -80 126 -133 117 -111 195 -210 235 -298 23 -52 32 -62 59 -68 62 -14
57 -5 -112 218 -64 85 -129 162 -143 171 -52 34 -333 323 -464 476 -144 167
-219 275 -330 469 -66 117 -99 189 -115 254 -6 25 -4 27 21 27 16 0 98 -18
183 -40 111 -29 216 -47 369 -65 242 -28 253 -27 361 33 36 20 87 41 114 47
27 6 54 18 59 27 12 19 3 48 -16 48 -7 0 -60 -28 -118 -62 l-104 -63 -100 2
c-198 5 -424 32 -543 65 -105 29 -153 50 -142 61 10 10 316 -33 385 -54 89
-27 291 -33 320 -9 17 14 16 15 -6 21 -13 4 -50 7 -82 8 -70 1 -257 31 -257
41 0 4 28 10 63 14 77 8 159 47 193 91 14 19 38 69 53 111 17 50 36 84 52 96
25 19 26 19 90 -2 80 -27 134 -61 159 -103 26 -42 25 -63 -5 -99 -38 -45 -33
-58 23 -58 60 0 133 36 146 71 5 14 4 40 -3 65 -10 38 -19 46 -153 131 -79 50
-162 100 -185 112 -109 55 -393 111 -581 114 -114 2 -119 1 -182 -30 -36 -17
-88 -55 -117 -83 -58 -56 -140 -170 -155 -212 -6 -16 -14 -28 -18 -28 -5 0
-37 25 -72 54 -58 50 -68 64 -111 163 -65 149 -69 166 -55 235 11 52 10 66
-11 136 -42 138 -45 158 -27 212 9 27 16 66 16 87 0 54 31 97 102 144 134 86
342 168 378 149 19 -10 19 -13 -18 -68 -57 -84 -72 -117 -72 -159 0 -21 -9
-56 -20 -78 -27 -52 -25 -69 10 -143 17 -35 30 -76 30 -92 0 -38 -23 -99 -63
-168 -73 -126 -107 -253 -75 -280 17 -14 88 29 176 109 32 27 90 67 131 87 90
45 168 52 287 28 44 -9 184 -27 311 -40 277 -29 283 -31 382 -150 79 -94 115
-126 142 -126 28 0 23 12 -22 55 -22 22 -65 75 -96 118 -86 122 -158 164 -263
152 -101 -10 -274 11 -407 52 -68 20 -123 40 -123 43 0 4 9 19 20 32 15 20 31
26 74 31 73 7 100 28 235 177 63 69 135 148 161 176 52 58 191 144 230 144 37
0 268 -81 323 -113 26 -16 61 -47 78 -69 31 -43 69 -152 69 -197 0 -25 -70
-277 -145 -516 -50 -164 -61 -211 -96 -435 -31 -191 -33 -221 -32 -440 1 -163
9 -329 28 -540 27 -313 27 -370 4 -630 -18 -194 -40 -281 -180 -719 -47 -146
-236 -681 -281 -796 -17 -44 -55 -127 -83 -185 -29 -58 -58 -123 -65 -145 -49
-154 -131 -346 -249 -584 -210 -422 -244 -469 -658 -907 -199 -212 -229 -253
-328 -445 -113 -219 -132 -236 -404 -373 -118 -60 -242 -119 -277 -132 -75
-28 -439 -104 -499 -104 -29 0 -54 8 -80 25 -37 26 -37 26 -87 9 -56 -18 -68
-12 -68 38 0 41 28 52 96 38 31 -7 67 -9 82 -5 14 3 61 10 105 15 60 7 90 16
126 39 25 16 62 36 81 44 42 17 54 30 69 79 7 21 20 44 30 50 29 22 64 116 57
157 -4 20 -10 59 -14 87 -4 29 -14 60 -22 70 -8 11 -32 40 -52 65 -21 25 -38
51 -38 57 0 7 12 30 26 52 36 54 28 76 -45 128 -33 23 -98 86 -145 141 -128
149 -122 146 -296 146 l-145 0 -85 -43 c-77 -38 -98 -55 -203 -166 l-117 -125
-163 -79 c-242 -119 -608 -271 -680 -284 -69 -12 -123 -36 -151 -67 -31 -34
-74 -36 -165 -7 -45 14 -90 26 -100 26 -13 0 -42 -35 -89 -107 -39 -60 -101
-153 -139 -208 -37 -55 -134 -211 -215 -346 l-148 -245 0 -722 0 -722 910 0
c501 0 910 4 910 8 0 11 -60 67 -87 81 -12 6 -44 16 -72 22 -64 13 -82 37 -74
94 8 63 -11 77 -79 60 -47 -13 -56 -12 -94 5 -109 48 -554 328 -554 348 0 4
18 25 39 46 36 35 42 38 78 32 26 -5 48 -2 71 10 28 14 38 14 64 3 30 -12 32
-11 63 25 l32 39 39 -27 c21 -14 44 -26 51 -26 7 0 52 26 100 57 48 31 129 74
178 96 50 22 96 45 103 52 11 10 -5 30 -88 111 -56 55 -113 118 -126 141 -14
23 -36 49 -49 57 -34 22 -31 49 7 81 27 23 39 26 77 22 51 -6 86 5 118 35 43
40 40 69 -22 183 -68 127 -71 165 -16 202 53 35 132 31 256 -13 55 -20 120
-42 145 -50 75 -25 317 -54 472 -58 l147 -4 30 39 c27 32 45 43 124 68 50 16
113 32 139 36 26 4 67 20 91 35 105 67 278 151 352 171 92 25 154 54 243 115
62 42 118 63 265 100 68 17 69 17 155 -9 48 -15 157 -38 242 -52 236 -40 316
-59 467 -115 142 -53 640 -281 818 -375 55 -29 172 -83 260 -120 176 -75 195
-86 276 -160 30 -28 87 -67 125 -87 94 -50 149 -91 176 -133 14 -20 47 -47 81
-66 53 -28 61 -37 96 -107 23 -46 45 -110 54 -157 26 -134 55 -262 72 -318 20
-65 37 -227 39 -377 l1 -115 57 -3 57 -3 -5 33 c-2 18 -11 121 -19 228 -42
535 -53 583 -172 762 -64 97 -111 141 -294 279 -211 158 -381 270 -478 315
-42 20 -104 49 -138 65 -34 16 -100 60 -148 97 -47 38 -133 97 -192 133 -116
69 -240 178 -278 243 -40 69 -68 190 -62 269 4 62 9 75 53 140 98 144 110 152
359 242 150 54 182 73 269 166 68 71 69 74 86 209 7 47 17 96 23 110 15 31
177 121 267 149 36 11 142 41 235 66 216 60 253 79 332 177 77 96 87 131 79
263 -3 55 -9 154 -13 221 l-6 120 107 63 c172 102 179 109 215 198 71 172 88
202 118 209 15 3 36 8 47 11 10 3 21 0 25 -5 9 -16 119 56 178 116 26 27 71
73 98 103 29 32 71 65 100 78 28 13 54 30 58 37 5 8 38 30 75 48 37 19 114 69
172 113 99 73 107 82 141 153 33 66 35 77 23 95 -9 14 -13 45 -11 92 2 63 -1
74 -21 96 -35 37 -55 127 -56 242 0 90 3 105 27 153 24 46 30 52 51 46 19 -4
27 0 36 16 7 12 42 55 78 94 80 86 106 136 128 242 22 105 26 113 156 267 75
88 85 125 97 367 6 107 17 231 26 275 23 121 80 316 124 418 120 287 251 580
316 712 84 169 139 301 160 383 30 115 11 263 -50 386 -19 39 -35 78 -35 86 0
8 -16 53 -37 99 -36 85 -40 111 -32 221 2 34 14 62 48 113 25 37 60 90 78 118
36 58 77 193 77 259 1 48 -9 68 -140 266 -30 44 -60 97 -69 117 -19 46 -20
153 -2 164 8 4 19 22 25 38 6 17 22 57 36 90 30 72 33 149 11 281 -12 70 -28
116 -76 214 -33 69 -69 134 -80 145 -10 12 -32 73 -50 140 -28 108 -31 130
-27 235 4 107 7 124 52 245 26 72 87 213 136 315 113 240 125 280 124 445 0
126 -1 134 -42 255 -31 91 -67 169 -134 285 -136 239 -249 396 -466 648 l-84
97 -4224 0 -4224 0 0 -1555z m4493 -3401 c36 -4 62 -13 73 -25 9 -11 27 -19
39 -19 12 0 30 -9 40 -20 10 -11 29 -20 41 -20 17 0 25 -7 30 -24 l6 -24 51
15 c29 8 86 29 126 45 l75 29 18 -23 c10 -13 18 -26 18 -30 0 -5 25 -8 55 -8
30 0 55 -4 55 -8 0 -20 -176 -229 -227 -269 -62 -49 -118 -73 -170 -73 -76 0
-112 -16 -203 -88 -149 -117 -197 -147 -215 -132 -21 17 -19 69 5 130 27 69
26 85 -16 168 -37 76 -38 97 -4 127 21 19 27 69 10 80 -13 8 -3 68 16 106 21
41 74 81 99 75 11 -3 46 -8 78 -12z m215 -920 c30 -6 28 -20 -7 -55 -35 -35
-85 -40 -101 -10 -11 22 -13 64 -3 74 6 6 57 2 111 -9z m-392 -88 c40 -83 152
-206 222 -245 38 -21 -1 -20 -119 4 -95 19 -128 30 -139 45 -8 12 -22 30 -30
41 -9 12 -32 22 -58 26 -51 7 -62 20 -29 32 28 11 57 47 57 72 0 19 46 79 61
79 4 0 20 -24 35 -54z m658 20 c-5 -21 -9 -24 -20 -15 -12 10 -12 15 2 30 21
24 27 19 18 -15z m-1492 -1847 c30 -15 50 -19 77 -14 50 8 222 15 243 9 23 -7
77 -85 84 -121 5 -24 -7 -48 -66 -138 -61 -92 -71 -112 -61 -127 13 -21 5 -25
-120 -69 -65 -22 -66 -22 -135 -6 -84 21 -106 42 -114 104 l-5 48 -45 -2
c-116 -5 -138 -4 -177 12 -23 9 -44 23 -47 31 -3 8 6 63 21 121 24 95 30 108
57 122 16 9 41 28 55 43 39 40 86 49 144 26 26 -10 66 -27 89 -39z m532 -175
c24 -23 19 -52 -13 -85 -20 -19 -40 -29 -60 -29 l-31 0 26 53 c42 83 50 89 78
61z"/>
<path d="M8648 14068 c184 -213 295 -362 433 -584 194 -311 239 -426 239 -619
0 -128 -29 -237 -95 -361 -54 -101 -158 -349 -208 -497 -59 -170 -21 -388 104
-602 71 -121 96 -183 115 -283 29 -150 13 -250 -50 -324 -64 -74 -70 -151 -21
-257 14 -29 39 -70 55 -91 45 -57 89 -158 107 -246 13 -66 14 -93 5 -163 -13
-95 -33 -133 -108 -202 -62 -58 -84 -107 -84 -190 0 -76 19 -148 65 -239 88
-176 140 -462 100 -557 -9 -20 -55 -77 -103 -127 -105 -110 -142 -176 -142
-258 0 -113 -46 -285 -103 -379 -14 -24 -53 -75 -86 -113 -45 -52 -69 -90 -92
-150 -68 -176 -78 -252 -98 -716 -11 -263 -17 -283 -112 -385 -73 -79 -111
-144 -130 -221 -24 -99 -67 -172 -148 -249 -42 -41 -88 -83 -103 -94 -15 -12
-39 -47 -55 -79 -25 -52 -28 -67 -28 -162 1 -85 6 -124 29 -205 18 -62 30
-135 34 -191 6 -122 -12 -178 -76 -235 -60 -53 -171 -128 -242 -164 -99 -50
-204 -127 -285 -211 -44 -45 -104 -100 -133 -123 -49 -37 -59 -41 -112 -41
-81 0 -99 -18 -145 -137 -20 -54 -48 -114 -60 -134 -29 -44 -122 -107 -194
-131 -94 -31 -129 -82 -111 -163 14 -64 32 -333 24 -369 -20 -93 -120 -218
-208 -261 -28 -13 -145 -49 -261 -80 -180 -47 -227 -64 -333 -118 -138 -70
-131 -59 -152 -212 -17 -125 -17 -125 -103 -208 -98 -93 -100 -95 -270 -153
-219 -76 -248 -93 -313 -181 -88 -118 -97 -138 -98 -202 0 -82 30 -200 67
-261 42 -70 171 -181 283 -245 48 -27 142 -88 208 -134 67 -47 162 -103 211
-126 109 -49 169 -85 395 -235 266 -178 355 -252 431 -360 35 -50 79 -114 97
-143 52 -85 81 -254 108 -648 l18 -249 3628 0 3628 0 0 7085 0 7085 -2806 0
-2805 0 89 -102z m1142 -624 c21 -5 35 -15 41 -31 6 -16 15 -23 24 -19 8 3 65
15 127 27 205 39 337 -5 385 -129 18 -47 19 -99 10 -426 l-2 -60 40 -20 c48
-26 64 -60 44 -102 -14 -29 -15 -29 -109 -32 -52 -1 -119 1 -147 4 l-53 5 0
62 c0 45 5 66 19 81 25 28 56 232 48 323 -8 110 -48 140 -177 131 -73 -6 -137
-34 -159 -70 -14 -22 -29 -181 -30 -316 -1 -67 3 -72 70 -86 40 -9 66 -85 37
-114 -17 -17 -342 -17 -355 1 -6 6 -13 33 -16 58 -6 43 -4 48 27 75 36 33 36
27 52 362 l7 134 -39 -2 c-66 -3 -64 -5 -64 68 0 38 3 72 7 75 8 9 170 9 213
1z m2215 -15 c81 -20 81 -20 133 -1 l52 20 40 -46 c45 -52 49 -71 21 -96 -13
-12 -21 -38 -26 -84 -4 -37 -16 -84 -26 -104 -41 -81 -145 -123 -327 -135
-144 -9 -129 -26 29 -34 68 -4 144 -12 169 -19 119 -32 230 -121 270 -216 40
-93 15 -219 -56 -286 -38 -35 -133 -82 -209 -103 -83 -22 -259 -31 -336 -16
-116 23 -197 60 -259 118 -32 30 -68 73 -80 97 -18 38 -19 50 -10 92 20 86 48
133 134 223 112 117 119 150 54 254 -39 61 -49 109 -37 167 32 150 242 226
464 169z m-919 -38 c41 -19 86 -52 124 -89 48 -49 62 -70 79 -126 24 -76 26
-102 10 -111 -5 -4 -135 -18 -287 -32 -152 -14 -279 -27 -281 -28 -1 -2 0 -28
4 -57 19 -138 192 -191 398 -121 66 23 83 33 85 50 3 23 50 63 72 63 14 0 127
-87 133 -103 13 -35 -44 -91 -87 -85 -12 1 -54 -14 -92 -34 -97 -51 -170 -69
-289 -69 -114 -1 -166 10 -247 53 -42 23 -66 43 -86 77 -112 182 -98 390 35
511 150 138 284 169 429 101z m1656 -12 c9 -10 18 -24 20 -30 3 -8 19 -4 46
10 107 55 215 62 312 20 42 -18 170 -133 159 -142 -2 -2 -34 -20 -70 -41 l-66
-36 -35 34 c-60 58 -131 60 -226 5 -80 -46 -92 -77 -92 -261 l0 -146 34 -12
c26 -8 38 -20 50 -51 19 -47 20 -81 4 -97 -18 -18 -372 -17 -387 2 -18 21 -31
105 -17 114 6 4 31 14 56 22 43 14 45 17 51 60 4 25 10 125 14 223 l8 177 -24
0 c-13 -1 -44 -5 -69 -10 -33 -6 -50 -5 -66 5 -18 12 -20 19 -13 81 10 102 21
108 174 100 102 -6 123 -10 137 -27z m1052 -40 c40 -20 84 -52 106 -76 58 -66
70 -125 70 -344 0 -138 3 -189 13 -204 8 -11 22 -32 31 -46 l17 -26 -67 -42
-66 -41 -41 30 c-47 35 -60 36 -176 14 -143 -27 -309 -7 -392 48 -41 28 -79
99 -79 148 0 55 37 153 75 197 54 63 118 86 255 91 78 2 138 -1 185 -11 39 -8
73 -13 78 -10 12 7 8 50 -9 93 -20 51 -57 71 -140 78 -97 7 -130 -3 -189 -59
-60 -56 -102 -65 -129 -27 -23 33 -20 60 14 106 58 81 162 123 290 119 73 -3
94 -8 154 -38z m-568 -825 c56 -37 88 -138 65 -207 -18 -52 -82 -107 -127
-107 -77 0 -129 59 -105 119 12 27 47 51 76 51 8 0 26 -11 42 -24 24 -20 25
-26 14 -40 -17 -21 -38 -20 -49 1 -13 23 -42 9 -42 -20 0 -33 18 -47 63 -47
34 0 40 4 52 34 8 18 17 62 21 98 6 59 4 67 -18 93 -20 23 -35 29 -79 32 -64
6 -92 -14 -108 -75 -14 -51 -34 -416 -26 -469 l6 -43 59 0 c64 0 83 12 49 30
-20 11 -20 13 -5 28 14 15 18 14 43 -5 37 -27 37 -63 1 -81 -15 -7 -56 -15
-92 -19 -77 -7 -67 22 -91 -256 -23 -282 -50 -381 -116 -429 -61 -45 -169 -30
-231 32 -35 35 -38 42 -38 94 0 54 3 60 44 104 37 39 50 46 81 46 51 0 85 -39
85 -96 0 -65 -46 -100 -84 -63 -24 24 -9 48 25 41 25 -5 29 -2 29 17 0 39 -22
59 -60 55 l-35 -3 -3 -76 c-2 -64 0 -79 18 -102 19 -23 29 -27 75 -27 72 0 89
19 104 113 14 85 33 539 23 548 -11 11 -142 17 -142 8 0 -5 16 -9 35 -9 40 0
44 -9 15 -35 -27 -24 -66 -13 -85 26 -26 49 -9 59 95 59 l87 0 7 114 c4 63 16
174 26 247 28 182 63 240 158 260 48 10 107 2 138 -17z m-2457 -38 c119 -14
128 -17 246 -76 133 -66 175 -97 175 -129 0 -12 13 -27 30 -38 29 -17 30 -21
28 -75 -2 -44 2 -62 17 -78 17 -19 18 -25 6 -73 -8 -29 -19 -59 -26 -67 -7 -8
-16 -29 -19 -46 -8 -37 -25 -53 -132 -128 -61 -42 -90 -56 -117 -56 -54 0 -59
13 -55 152 3 123 3 123 -30 179 -18 31 -39 62 -48 70 -26 22 -219 25 -289 4
-81 -23 -192 -81 -199 -102 -3 -10 -6 -45 -7 -78 -3 -72 15 -114 73 -165 27
-25 41 -46 45 -71 l5 -37 -43 8 c-24 4 -71 11 -104 15 -32 3 -67 11 -76 16
-31 16 -193 150 -221 183 -44 49 -59 116 -52 219 7 84 9 92 47 141 48 63 107
116 128 116 9 0 24 9 33 19 30 34 80 51 237 81 83 16 154 32 158 35 3 4 19 4
36 1 16 -4 86 -13 154 -20z m2958 -333 c6 -16 -135 -106 -153 -99 -25 10 -15
25 49 71 60 44 96 54 104 28z m-1874 -90 c110 -29 135 -77 74 -138 -39 -39
-72 -50 -122 -41 -39 8 -75 47 -75 82 0 35 14 36 45 4 38 -40 75 -41 75 -2 0
37 -11 51 -48 61 -57 17 -97 -4 -141 -73 -36 -58 -39 -88 -11 -134 30 -48 77
-65 174 -60 70 3 94 9 172 46 50 23 97 42 105 42 8 0 64 37 124 81 116 86 183
122 252 133 34 6 45 4 62 -13 12 -12 21 -30 21 -40 0 -11 9 -23 20 -26 35 -11
50 -35 50 -79 0 -83 9 -104 46 -111 55 -10 42 -32 -32 -55 -36 -11 -70 -17
-75 -14 -5 3 -18 23 -30 45 -11 22 -23 39 -27 37 -95 -50 -187 -88 -214 -88
-27 0 -44 10 -87 51 l-54 52 -51 -18 c-28 -10 -85 -33 -126 -53 -41 -19 -93
-37 -115 -39 -50 -6 -227 22 -270 43 -44 21 -93 74 -96 104 -5 52 2 89 19 109
15 20 228 110 260 111 7 0 40 -8 75 -17z m1682 -47 c38 -16 95 -69 95 -88 0
-11 -35 -21 -137 -38 -76 -12 -141 -24 -146 -27 -13 -8 13 -43 46 -63 39 -24
122 -26 174 -5 77 33 104 1 31 -36 -54 -28 -169 -37 -234 -19 -95 27 -147 117
-108 188 50 94 172 132 279 88z m-2803 -152 c14 -9 9 -33 -9 -42 -29 -15 -132
-20 -143 -7 -10 12 19 46 50 58 16 7 87 0 102 -9z m-1599 -11068 c32 -7 60
-16 62 -18 4 -4 -23 -93 -49 -165 -3 -7 -19 2 -41 22 -35 34 -91 53 -121 41
-33 -13 -8 -40 68 -72 101 -43 123 -58 143 -101 22 -45 16 -124 -12 -161 -39
-53 -98 -76 -205 -80 -92 -4 -200 8 -252 28 l-24 9 30 91 30 91 39 -35 c55
-50 120 -62 127 -24 2 13 -18 28 -78 58 -103 52 -123 80 -118 167 4 55 8 67
38 98 18 19 52 41 74 49 53 19 213 20 289 2z m770 8 l77 -7 0 -263 0 -264
-115 0 -115 0 0 263 c0 145 3 267 7 270 8 9 49 9 146 1z m-2153 -199 l0 -194
103 -3 102 -3 3 -67 3 -68 -226 0 -225 0 0 265 0 265 120 0 120 0 0 -195z
m590 65 c21 -11 49 -36 61 -57 22 -35 24 -51 28 -190 l3 -153 -116 0 c-64 0
-116 4 -116 9 0 5 -19 2 -42 -6 -55 -19 -103 -9 -140 27 -23 23 -28 37 -28 74
0 39 6 52 34 83 32 35 38 37 105 41 39 2 71 8 71 13 0 29 -107 39 -165 15
l-35 -15 0 70 c0 66 1 70 28 81 99 41 240 45 312 8z m1218 14 c77 -32 131
-111 132 -191 l0 -43 -105 0 c-58 0 -105 -4 -105 -9 0 -5 12 -19 26 -30 34
-27 97 -27 149 -1 22 11 41 20 42 20 2 0 3 -16 3 -36 0 -92 -161 -159 -295
-123 -63 17 -112 56 -140 112 -56 113 -11 248 100 298 50 23 143 24 193 3z
m1326 -14 c71 -34 83 -68 88 -247 l4 -153 -113 0 c-62 0 -113 4 -113 9 0 5
-19 2 -42 -6 -55 -19 -104 -11 -139 23 -35 33 -44 82 -25 128 21 49 57 69 139
75 67 6 70 7 53 24 -22 22 -102 23 -152 2 -42 -18 -46 -11 -42 66 3 49 6 55
33 68 88 43 233 48 309 11z m-631 -27 l24 -46 18 46 18 47 113 0 114 0 -9 -22
c-5 -13 -45 -106 -90 -208 l-80 -185 -87 0 -86 0 -89 204 c-49 113 -89 206
-89 208 0 2 49 3 110 3 l110 0 23 -47z"/>
<path d="M11880 13322 c-93 -7 -139 -23 -169 -58 -36 -41 -38 -53 -11 -87 44
-55 250 -73 339 -30 32 16 36 23 38 58 5 79 -76 127 -197 117z"/>
<path d="M11731 12795 c-29 -8 -66 -24 -82 -35 -43 -31 -97 -99 -104 -131 -12
-55 66 -143 157 -175 107 -37 297 -26 396 25 60 31 112 94 112 137 0 112 -121
183 -320 190 -73 3 -121 -1 -159 -11z"/>
<path d="M10839 13263 c-32 -17 -63 -42 -77 -62 -21 -32 -21 -36 -6 -44 24
-13 97 -13 247 3 149 15 161 24 105 76 -67 61 -179 72 -269 27z"/>
<path d="M13466 12950 c-43 -13 -95 -68 -102 -108 -4 -22 -1 -46 9 -68 20 -42
65 -55 191 -56 142 -1 256 50 256 113 0 41 -58 95 -122 114 -55 16 -184 19
-232 5z"/>
<path d="M12445 11932 c-61 -28 -146 -137 -129 -164 18 -29 163 44 202 102 45
67 8 99 -73 62z"/>
<path d="M13379 11939 l-24 -20 59 6 c77 9 96 16 70 26 -36 14 -81 9 -105 -12z"/>
<path d="M8140 395 c-17 -20 3 -45 36 -45 20 0 24 5 24 30 0 25 -4 30 -24 30
-13 0 -29 -7 -36 -15z"/>
<path d="M9476 558 c-24 -33 -20 -38 29 -38 49 0 59 15 29 44 -21 22 -40 20
-58 -6z"/>
<path d="M10686 395 c-10 -26 5 -45 35 -45 26 0 29 4 29 30 0 26 -3 30 -29 30
-16 0 -31 -6 -35 -15z"/>
<path d="M1340 10746 c0 -9 -9 -33 -20 -53 -11 -21 -20 -55 -20 -75 0 -36 2
-38 33 -38 33 0 109 41 135 72 22 27 -33 80 -105 102 -17 6 -23 3 -23 -8z"/>
<path d="M4346 10581 c-3 -5 12 -21 33 -36 22 -14 52 -45 68 -68 31 -46 32
-63 18 -253 -7 -89 -6 -91 21 -124 16 -18 53 -49 84 -68 30 -19 65 -44 77 -55
13 -11 25 -18 28 -15 10 10 -35 56 -89 92 -93 61 -94 66 -86 296 4 100 -13
143 -79 203 -40 36 -65 45 -75 28z"/>
<path d="M1223 10528 c-34 -16 -28 -28 15 -28 46 0 112 18 112 30 0 13 -99 11
-127 -2z"/>
<path d="M4038 10434 c-4 -4 0 -21 10 -38 11 -21 17 -54 16 -104 0 -76 13 -91
30 -33 6 21 5 49 -3 84 -12 53 -41 103 -53 91z"/>
<path d="M4016 10036 c-19 -58 -62 -167 -95 -243 -77 -181 -95 -238 -131 -418
-17 -82 -44 -201 -60 -264 -27 -103 -31 -135 -14 -119 17 18 60 178 95 353 47
242 58 275 171 532 80 183 104 263 79 263 -5 0 -25 -47 -45 -104z"/>
<path d="M993 9880 c-29 -10 -81 -39 -115 -63 -132 -94 -275 -153 -538 -222
-74 -20 -161 -49 -194 -65 -85 -43 -145 -91 -146 -117 0 -20 5 -19 79 21 43
23 92 52 108 64 50 35 177 66 273 66 65 -1 103 -7 163 -27 103 -36 153 -35
220 3 65 37 105 38 175 5 37 -17 71 -25 109 -25 37 0 63 -6 81 -18 41 -29 69
-32 123 -15 48 16 51 15 98 -7 37 -17 58 -21 83 -15 96 20 141 17 247 -20 58
-19 120 -35 139 -35 28 0 47 -12 102 -60 84 -75 131 -95 245 -109 84 -10 396
-89 411 -104 16 -16 -57 -27 -183 -27 l-136 0 -39 -41 c-22 -23 -36 -45 -31
-49 4 -4 64 -29 133 -54 143 -54 200 -84 224 -120 25 -39 82 -62 186 -75 134
-18 139 -19 165 -61 15 -23 35 -40 52 -44 15 -4 44 -22 63 -40 24 -22 75 -47
160 -79 146 -54 176 -62 184 -49 9 15 -53 53 -159 98 -96 41 -100 43 -103 76
-4 42 -9 47 -62 56 -39 7 -44 11 -57 47 -16 46 -27 55 -73 55 -26 0 -63 19
-157 81 -68 45 -123 85 -123 88 1 10 125 91 140 91 9 0 25 -7 37 -15 19 -13
23 -13 46 5 14 11 36 20 49 20 13 0 28 4 34 10 5 5 24 6 47 0 51 -11 90 1 138
44 58 53 72 53 180 3 51 -24 99 -50 106 -58 9 -11 9 -33 2 -88 -13 -92 -5
-105 60 -96 59 8 103 25 98 38 -2 6 -19 16 -38 22 -40 14 -45 30 -29 92 13 55
5 67 -79 114 -107 61 -216 157 -295 262 -38 50 -65 49 -181 -9 l-93 -47 -47
28 c-50 29 -49 29 -185 9 -42 -6 -47 -4 -58 20 -10 23 -18 26 -57 26 -52 0
-75 10 -123 51 -25 22 -43 29 -76 29 -36 0 -45 4 -54 25 -11 25 -13 25 -135
25 -185 0 -300 39 -347 118 -11 17 -28 32 -38 32 -10 0 -28 13 -40 30 -30 40
-74 50 -232 50 -74 0 -175 7 -225 15 -49 8 -105 15 -123 15 -18 0 -50 9 -72
20 -47 24 -50 24 -117 0z"/>
<path d="M0 9077 c0 -14 19 -41 48 -70 27 -27 62 -75 77 -108 20 -41 36 -61
52 -65 35 -9 88 4 108 26 17 19 16 20 -14 45 -17 15 -63 48 -103 74 -40 26
-93 64 -116 84 -24 21 -46 37 -48 37 -2 0 -4 -10 -4 -23z"/>
<path d="M1362 8889 c-174 -27 -436 -109 -513 -162 -77 -52 -22 -74 69 -28 60
30 226 76 381 105 99 19 356 22 398 5 18 -8 117 -13 273 -14 l245 -2 101 -35
c154 -53 252 -128 322 -248 57 -96 25 -230 -54 -230 -19 0 -62 -11 -96 -25
-34 -14 -63 -23 -66 -20 -3 2 15 29 39 60 45 56 49 58 106 40 16 -5 25 -1 38
19 16 23 16 29 0 83 -23 80 -50 111 -147 165 -101 57 -216 90 -404 118 -223
32 -442 24 -799 -31 -170 -25 -225 -42 -293 -88 -32 -22 -77 -46 -102 -54
-117 -39 -3 -63 157 -32 43 8 83 15 88 15 6 0 10 -35 10 -83 1 -69 5 -90 27
-132 33 -63 80 -108 138 -134 138 -61 380 -50 501 22 48 29 59 41 96 117 24
47 53 127 67 179 13 51 31 101 40 110 21 20 161 21 254 1 86 -18 181 -68 209
-109 35 -52 30 -72 -22 -101 -28 -15 -43 -30 -40 -38 9 -23 -14 -51 -78 -99
-86 -62 -144 -91 -272 -130 -179 -55 -256 -60 -485 -34 -218 25 -318 47 -418
91 -58 27 -76 42 -132 110 -57 70 -71 82 -116 95 -54 17 -84 12 -84 -12 0 -18
127 -143 185 -182 22 -15 77 -47 123 -71 99 -53 127 -79 118 -113 -9 -38 -48
-48 -215 -53 -223 -7 -243 -14 -148 -53 88 -37 96 -43 108 -78 16 -49 42 -51
143 -9 100 42 110 42 194 16 69 -22 235 -25 508 -11 l131 6 63 58 c35 32 74
63 87 68 32 12 223 12 223 0 0 -18 -22 -24 -100 -26 -91 -2 -119 -16 -177 -90
-36 -45 -43 -49 -84 -51 -24 -1 -66 -8 -92 -15 -60 -17 -63 -26 -49 -172 14
-151 5 -197 -68 -346 -100 -204 -181 -317 -405 -560 -120 -131 -140 -172 -139
-281 1 -60 11 -120 33 -205 18 -71 31 -144 31 -181 0 -57 -6 -73 -69 -197 -39
-75 -82 -174 -96 -221 -19 -64 -37 -99 -74 -145 -45 -56 -50 -69 -65 -153 -10
-51 -22 -108 -27 -126 -13 -40 -4 -82 17 -82 14 0 451 430 625 615 36 39 99
102 140 140 62 58 86 91 139 189 107 196 143 243 239 307 52 35 94 72 113 100
45 68 68 88 112 100 23 6 57 20 77 31 56 31 162 155 204 239 55 109 113 195
186 274 80 88 101 117 143 202 19 37 46 81 61 96 33 32 94 71 101 64 3 -2 6
-87 7 -188 2 -178 1 -187 -27 -277 -28 -88 -30 -112 -7 -98 13 9 87 237 96
297 4 29 1 76 -9 126 -22 106 -14 141 75 318 57 113 73 155 82 217 l12 78 50
-61 c64 -77 103 -145 121 -211 34 -130 26 -362 -15 -413 -27 -35 -27 -51 2
-89 13 -17 27 -44 31 -61 13 -53 29 -2 22 67 -6 47 -4 65 10 86 15 22 16 46
11 191 -8 231 -27 292 -127 411 -89 107 -95 121 -94 217 2 140 53 263 158 387
58 68 83 125 102 234 9 48 26 106 40 131 25 45 25 63 0 42 -25 -21 -53 -94
-69 -178 -21 -110 -43 -155 -114 -235 -107 -120 -131 -185 -158 -433 -20 -173
-43 -274 -85 -362 -42 -92 -74 -128 -156 -179 -82 -51 -128 -98 -155 -159 -53
-120 -168 -188 -236 -140 -33 23 -51 99 -59 250 -4 74 -10 135 -13 135 -12 -1
-68 -36 -116 -73 -28 -21 -81 -59 -120 -85 -59 -39 -79 -47 -130 -50 -49 -4
-66 -10 -94 -34 -47 -41 -51 -27 -4 16 21 20 56 41 78 46 66 18 112 41 141 71
15 16 33 29 39 29 7 0 49 27 95 60 46 33 94 60 107 60 47 0 91 27 113 69 15
31 42 55 105 97 100 66 164 134 208 224 31 63 32 68 30 181 -2 67 -9 137 -18
165 -8 28 -15 88 -15 139 0 79 -4 99 -31 162 -35 80 -40 83 -134 83 -74 0
-207 33 -245 60 -44 31 -183 57 -426 80 -247 24 -713 35 -812 19z m178 -308
c5 -11 10 -32 10 -47 0 -22 -3 -25 -22 -20 -13 3 -31 6 -40 6 -10 0 -15 6 -13
13 20 56 26 67 39 67 9 0 20 -9 26 -19z m-250 -98 c0 -36 -3 -43 -19 -43 -14
0 -23 11 -32 37 -11 34 -10 38 11 55 29 24 40 11 40 -49z m529 -5 c-18 -32
-24 -1 -8 38 12 27 13 27 16 7 3 -12 -1 -32 -8 -45z m1025 -233 c27 -8 71 -15
97 -15 47 0 48 -1 58 -37 6 -21 11 -53 11 -70 0 -35 -27 -113 -39 -113 -14 0
-49 45 -115 148 -36 56 -65 102 -63 102 1 0 24 -7 51 -15z"/>
<path d="M66 8665 c-58 -64 -67 -79 -64 -107 3 -32 6 -29 76 75 40 59 68 107
63 107 -4 0 -39 -34 -75 -75z"/>
<path d="M525 8699 c-22 -4 -83 -8 -136 -8 -100 -1 -116 -5 -98 -28 14 -16
108 -17 194 -1 57 10 66 9 96 -8 19 -11 35 -30 37 -42 4 -25 20 -28 47 -8 18
13 18 15 -10 52 -44 59 -48 60 -130 43z"/>
<path d="M315 8600 c-13 -20 16 -39 87 -55 64 -14 73 -14 87 -1 13 14 10 17
-30 35 -56 24 -135 36 -144 21z"/>
<path d="M87 8505 c-21 -25 -49 -48 -63 -51 -18 -5 -24 -13 -24 -34 0 -28 1
-28 43 -19 29 7 52 20 75 46 l33 38 30 -18 c17 -9 41 -17 53 -17 33 0 119 27
141 45 18 15 13 15 -70 10 -80 -6 -93 -5 -115 13 -47 37 -62 35 -103 -13z"/>
<path d="M450 8430 c-8 -5 -30 -7 -48 -4 -48 9 -178 -15 -208 -38 -13 -11 -24
-28 -24 -38 0 -9 -6 -33 -14 -51 -28 -70 -29 -79 -6 -79 12 0 38 13 58 30 20
16 78 43 127 61 50 17 120 45 158 62 65 29 67 31 51 48 -18 20 -69 25 -94 9z"/>
<path d="M436 8204 c-38 -7 -71 -16 -74 -18 -6 -6 -11 -4 133 -51 l110 -35 27
33 c52 61 33 87 -61 86 -37 0 -97 -7 -135 -15z"/>
<path d="M700 7873 c0 -36 23 -73 81 -128 36 -35 63 -73 86 -125 85 -186 117
-243 154 -273 21 -18 102 -61 180 -97 118 -54 147 -71 167 -100 16 -25 34 -38
65 -46 32 -8 48 -20 71 -53 l28 -42 32 23 c37 28 165 275 198 383 23 74 26
157 11 279 l-8 69 -40 14 c-33 12 -49 12 -91 2 -77 -17 -264 -7 -338 20 -78
28 -105 27 -186 -9 -88 -39 -120 -39 -159 1 -17 17 -31 35 -31 40 0 16 -60 38
-142 53 l-78 14 0 -25z"/>
<path d="M1161 7176 c-24 -29 -25 -100 -1 -190 l23 -87 -25 -27 c-36 -38 -48
-65 -48 -107 0 -28 -8 -44 -35 -72 -44 -45 -65 -113 -65 -210 0 -79 7 -99 51
-151 35 -40 69 -104 69 -130 0 -11 6 -25 14 -32 12 -9 17 -5 25 27 8 29 7 60
-4 124 -20 111 -19 175 4 224 10 22 82 114 160 203 149 173 152 178 131 253
-12 44 -44 75 -88 84 -23 5 -34 14 -38 32 -11 43 -148 90 -173 59z"/>
<path d="M2048 6263 c-14 -16 -72 -101 -129 -191 -135 -212 -171 -256 -269
-335 -44 -36 -104 -96 -132 -134 -28 -37 -138 -158 -244 -269 -231 -239 -269
-292 -301 -424 -13 -52 -23 -114 -23 -137 0 -42 -17 -93 -31 -93 -4 0 -21 -13
-38 -29 -25 -23 -31 -37 -31 -69 0 -44 20 -72 50 -72 11 0 37 24 62 58 43 55
45 57 96 60 52 3 52 4 77 53 16 30 36 54 53 62 15 6 52 33 82 60 30 26 95 75
143 108 61 43 111 88 165 151 51 61 91 97 123 114 26 13 57 38 70 56 13 18 71
98 130 178 65 88 111 161 117 185 13 51 32 189 32 235 0 19 9 80 19 135 39
197 43 325 13 325 -5 0 -20 -12 -34 -27z"/>
<path d="M3695 5055 c-148 -52 -173 -53 -296 -8 -66 24 -89 27 -209 27 l-135
1 -255 -87 c-321 -110 -413 -128 -685 -135 -158 -3 -222 -1 -305 13 -58 9
-142 17 -187 18 -44 0 -85 4 -89 9 -11 11 -52 9 -77 -5 -54 -29 -262 -196
-276 -221 -31 -57 -45 -67 -100 -76 -45 -7 -61 -15 -88 -45 -22 -24 -33 -46
-33 -66 0 -24 -5 -31 -27 -36 -32 -8 -73 -41 -73 -60 0 -15 84 -34 153 -34 69
0 149 20 280 70 234 88 393 115 507 86 78 -20 205 -81 280 -135 31 -23 77 -45
105 -52 62 -14 128 -57 425 -276 276 -203 283 -209 278 -225 -8 -24 -34 -18
-71 16 -21 19 -53 40 -72 46 -19 6 -49 30 -70 56 -27 33 -47 47 -81 55 -32 8
-49 20 -64 44 -11 18 -59 61 -107 94 -101 73 -119 83 -201 110 -71 24 -178 87
-225 133 -23 22 -65 42 -152 71 -180 60 -194 59 -503 -48 l-254 -87 -111 4
c-83 3 -131 10 -185 28 l-72 24 -53 -23 c-28 -13 -101 -41 -162 -63 -60 -21
-114 -43 -119 -48 -5 -5 -2 -25 7 -49 22 -53 39 -165 31 -197 -8 -32 -161
-149 -217 -166 -25 -7 -51 -27 -74 -55 -19 -24 -44 -43 -54 -43 -22 0 -49 -37
-49 -67 0 -12 -7 -28 -15 -37 -13 -12 -15 -59 -15 -290 l0 -276 53 0 c100 0
151 23 231 104 122 126 251 172 445 161 322 -17 716 -135 948 -282 49 -31 109
-69 134 -85 25 -16 62 -31 82 -35 37 -6 39 -4 171 125 140 137 227 202 270
202 14 0 47 8 73 19 36 14 87 20 208 24 142 6 166 4 215 -13 l55 -19 104 31
c100 31 104 31 133 15 38 -22 56 -21 137 2 76 23 303 61 360 61 26 0 64 13
114 40 42 22 94 42 117 46 23 4 69 25 103 47 34 22 80 48 102 58 22 10 69 43
105 74 36 32 88 75 117 97 29 22 66 62 84 90 47 73 27 77 -87 16 -88 -46 -100
-50 -206 -60 -62 -6 -124 -9 -138 -5 -14 3 -70 38 -124 77 -54 39 -108 73
-120 76 -12 3 -77 -12 -146 -32 -241 -71 -277 -73 -445 -23 -91 27 -279 139
-328 196 -22 24 -69 63 -105 86 -153 99 -342 277 -342 322 0 34 34 67 63 60
12 -2 58 -9 102 -16 44 -6 101 -20 127 -30 27 -10 103 -26 170 -35 68 -8 127
-18 132 -22 6 -3 51 -9 100 -14 50 -4 111 -11 136 -16 25 -4 99 -3 165 1 101
8 123 7 146 -7 34 -20 56 -20 144 -1 39 8 147 18 242 22 l172 6 108 -35 c238
-78 266 -82 359 -47 l57 22 -34 28 c-19 16 -61 48 -94 70 l-60 41 -107 -7
c-60 -4 -108 -5 -108 -2 0 3 9 24 20 48 21 47 27 109 10 109 -5 0 -10 -11 -10
-25 0 -60 -68 -145 -116 -145 -22 0 -54 23 -54 39 0 5 13 25 29 45 34 43 54
96 48 128 -3 19 -9 11 -31 -37 -15 -33 -35 -68 -43 -77 -19 -21 -71 -24 -79
-5 -3 8 11 74 31 148 34 130 45 203 26 184 -5 -6 -16 -42 -24 -82 -26 -117
-98 -243 -139 -243 -23 0 -23 -8 2 170 7 46 10 118 7 159 -5 71 -5 75 23 102
55 56 167 32 203 -44 23 -47 21 -82 -4 -127 -14 -24 -19 -45 -15 -57 6 -14 15
-3 43 52 19 39 38 72 40 75 3 3 41 -33 84 -80 90 -96 95 -118 59 -210 -23 -58
-24 -64 -10 -55 5 3 23 32 41 65 17 32 37 61 44 64 19 7 150 -58 214 -106 58
-44 88 -96 116 -203 38 -147 4 -284 -115 -460 -68 -101 -76 -123 -84 -230 -5
-59 -16 -112 -32 -152 -23 -57 -24 -65 -11 -90 l15 -27 54 84 c121 189 157
257 187 355 46 149 61 235 61 343 0 213 -71 355 -216 437 -164 93 -204 123
-334 254 -224 225 -270 241 -485 166z m73 -84 c19 -12 32 -123 22 -188 -21
-129 -63 -223 -100 -223 -26 0 -25 14 6 106 22 65 25 91 23 186 -2 85 1 112
12 119 17 11 21 11 37 0z m-107 -71 c16 -9 19 -22 19 -92 0 -95 -22 -183 -56
-224 l-24 -29 -19 22 c-33 39 -39 208 -10 284 9 24 39 46 62 48 5 1 17 -4 28
-9z m-140 -87 c6 -16 9 -63 6 -110 -11 -180 -96 -204 -97 -27 0 77 14 132 38
152 25 19 42 14 53 -15z m-116 -80 c-8 -107 -14 -143 -25 -143 -19 0 -70 63
-76 95 -13 70 25 135 79 135 l29 0 -7 -87z"/>
<path d="M4170 4717 c0 -27 13 -36 26 -16 3 6 -1 18 -10 27 -15 15 -16 14 -16
-11z"/>
<path d="M3840 3393 c-14 -3 -51 -21 -82 -40 -56 -34 -59 -35 -210 -44 -203
-11 -222 -15 -301 -51 -62 -29 -70 -30 -106 -18 -44 14 -71 5 -87 -32 -6 -13
-26 -56 -44 -95 -19 -40 -30 -76 -26 -80 6 -6 50 6 124 34 8 4 12 -7 12 -36 0
-38 2 -41 28 -42 15 0 93 -8 174 -18 145 -17 148 -17 190 2 41 19 45 19 91 3
62 -22 65 -19 127 103 35 70 72 123 135 194 48 54 86 99 84 101 -27 23 -58 28
-109 19z"/>
<path d="M586 3263 c-134 -24 -230 -88 -282 -188 l-29 -56 31 -28 c21 -19 76
-42 180 -75 264 -85 416 -171 458 -260 9 -19 16 -54 16 -79 0 -39 -4 -49 -30
-69 -85 -65 -82 -61 -67 -83 15 -19 16 -19 130 12 183 51 793 329 846 387 l24
26 -22 24 c-22 24 -180 121 -321 199 -138 75 -269 114 -618 181 -146 29 -199
30 -316 9z"/>
<path d="M2893 3182 c-40 -20 -73 -42 -73 -48 0 -18 80 -84 102 -84 37 0 92
126 68 155 -16 19 -13 20 -97 -23z"/>
<path d="M2800 3050 c0 -25 112 -92 128 -76 7 7 -27 45 -52 58 -31 17 -76 27
-76 18z"/>
<path d="M1444 755 c-27 -14 -62 -36 -78 -49 l-28 -23 58 -42 c92 -66 111 -56
138 75 l14 64 -27 0 c-15 0 -49 -11 -77 -25z"/>
<path d="M1340 595 c-10 -13 -5 -22 31 -55 90 -83 139 -106 139 -65 0 13 -134
135 -149 135 -5 0 -14 -7 -21 -15z"/>
<path d="M2132 40 c-23 -17 -42 -32 -42 -35 0 -3 29 -5 64 -5 69 0 86 13 66
51 -15 27 -40 24 -88 -11z"/>
</g>
</svg>
